<svg width="20" height="22" viewBox="0 0 20 22" fill="none" xmlns="http://www.w3.org/2000/svg">
<path fill-rule="evenodd" clip-rule="evenodd" d="M3.39402 7.55577C3.84675 5.20157 5.90672 3.5 8.30406 3.5H11.6959C14.0933 3.5 16.1532 5.20156 16.606 7.55576L18.482 17.3112C18.5383 17.6041 18.461 17.9069 18.271 18.1368C18.081 18.3668 17.7983 18.5 17.5 18.5H2.49999C2.2017 18.5 1.91897 18.3668 1.729 18.1368C1.53903 17.9069 1.46165 17.6041 1.51799 17.3112L3.39402 7.55577ZM8.30406 5.5C6.86565 5.5 5.62967 6.52094 5.35804 7.93346L3.71062 16.5H16.2894L14.642 7.93346C14.3703 6.52094 13.1343 5.5 11.6959 5.5H8.30406Z" fill="#FCDDEC"/>
<path fill-rule="evenodd" clip-rule="evenodd" d="M20 18.5H0V16.5H20V18.5Z" fill="#FCDDEC"/>
<path fill-rule="evenodd" clip-rule="evenodd" d="M6 17.5C6 16.9477 6.44772 16.5 7 16.5H13C13.5523 16.5 14 16.9477 14 17.5V18.5C14 20.1569 12.6569 21.5 11 21.5H9C7.34315 21.5 6 20.1569 6 18.5V17.5ZM8 18.5C8 19.0523 8.44772 19.5 9 19.5H11C11.5523 19.5 12 19.0523 12 18.5H8Z" fill="#FCDDEC"/>
<path fill-rule="evenodd" clip-rule="evenodd" d="M7 4.5C7 5.05228 7.44772 5.5 8 5.5H12C12.5523 5.5 13 5.05228 13 4.5V3.5C13 1.84315 11.6569 0.5 10 0.5C8.34315 0.5 7 1.84315 7 3.5V4.5ZM9 3.5C9 2.94772 9.44772 2.5 10 2.5C10.5523 2.5 11 2.94772 11 3.5H9Z" fill="#FCDDEC"/>
</svg>
