<svg width="22" height="20" viewBox="0 0 22 20" fill="none" xmlns="http://www.w3.org/2000/svg">
<path d="M0.590454 9C0.590454 7.34315 2.15106 6 4.07617 6H18.019C19.9441 6 21.5047 7.34315 21.5047 9V17C21.5047 18.6569 19.9441 20 18.019 20H4.07617C2.15106 20 0.590454 18.6569 0.590454 17V9Z" fill="#6C5ECF"/>
<path d="M6.40002 6C6.40002 4 6.98098 1 11.0476 1C15.1143 1 15.6953 4 15.6953 6" stroke="#6C5ECF" stroke-width="2" stroke-linecap="round" stroke-linejoin="round"/>
<path d="M12.8714 12C12.8714 12.7607 12.1279 13.5 11.0476 13.5C9.96726 13.5 9.22375 12.7607 9.22375 12C9.22375 11.2393 9.96726 10.5 11.0476 10.5C12.1279 10.5 12.8714 11.2393 12.8714 12Z" fill="#6C5ECF" stroke="#2B2937"/>
<path d="M11.0476 15V12" stroke="#2B2937" stroke-width="2" stroke-linecap="round" stroke-linejoin="round"/>
</svg>
